<svg width="180" height="146" viewBox="0 0 180 146" fill="none" xmlns="http://www.w3.org/2000/svg">
<g clip-path="url(#clip0_31_68)">
<path d="M172.869 0.000183162H118.837C116.23 5.53822e-05 113.7 0.887639 111.664 2.51703C109.627 4.14641 108.205 6.42063 107.632 8.96583L80.3311 130.141C80.0333 131.463 80.0281 132.834 80.3157 134.158C80.6034 135.481 81.177 136.726 81.9964 137.805C82.8157 138.884 83.8609 139.77 85.0587 140.402C86.2566 141.033 87.578 141.395 88.9303 141.462L144.476 144.2C147.45 144.347 150.376 143.406 152.708 141.552C155.04 139.699 156.618 137.06 157.148 134.127L172.635 48.4556L173.788 48.785L176.752 32.5468L175.566 32.2502L179.889 8.33599C180.074 7.31167 180.031 6.25906 179.763 5.25321C179.495 4.24737 179.009 3.31305 178.339 2.51689C177.669 1.72073 176.831 1.08232 175.886 0.647188C174.941 0.212052 173.912 -0.00909608 172.871 -0.000490577L172.869 0.000183162Z" fill="#3F3D56"/>
<path d="M125.95 2.6123H119.643C117.832 2.61232 116.075 3.23219 114.665 4.369C113.254 5.50581 112.274 7.09119 111.888 8.86197L85.6821 129.048C85.5311 129.74 85.5312 130.457 85.6824 131.149C85.8335 131.841 86.1322 132.492 86.5579 133.058C86.9836 133.624 87.5264 134.091 88.1492 134.427C88.7719 134.764 89.46 134.962 90.1663 135.008L145.531 138.64C147.093 138.742 148.638 138.265 149.871 137.301C151.104 136.336 151.939 134.951 152.217 133.409L174.578 9.18487C174.723 8.38084 174.69 7.55484 174.481 6.76514C174.272 5.97544 173.892 5.24129 173.368 4.6145C172.844 3.9877 172.19 3.48354 171.45 3.13759C170.711 2.79164 169.904 2.61232 169.088 2.6123H163.105C162.526 2.61229 161.963 2.8033 161.503 3.15577C161.043 3.50824 160.713 4.00251 160.562 4.56205C160.429 5.0562 160.137 5.49269 159.731 5.80391C159.325 6.11512 158.828 6.28369 158.316 6.2835H129.913C128.911 6.28347 127.947 5.90536 127.212 5.22475C126.478 4.54414 126.027 3.61117 125.95 2.6123Z" fill="white"/>
<path d="M156.556 86.6329C156.663 86.6366 156.769 86.6015 156.853 86.5339C156.937 86.4664 156.994 86.3709 157.013 86.2648L169.257 18.6479C169.268 18.5836 169.266 18.5176 169.25 18.4543C169.234 18.391 169.204 18.332 169.163 18.2812C169.122 18.2308 169.071 18.19 169.013 18.1617C168.954 18.1334 168.891 18.1182 168.826 18.1174L113.122 17.459H113.117C113.016 17.4598 112.918 17.495 112.84 17.5588C112.761 17.6226 112.707 17.7111 112.685 17.81L98.2513 83.2322C98.2372 83.2961 98.237 83.3622 98.2508 83.4261C98.2646 83.4901 98.292 83.5502 98.3312 83.6026C98.37 83.6545 98.4198 83.6972 98.477 83.7277C98.5341 83.7582 98.5973 83.7757 98.662 83.779L156.556 86.6329Z" fill="#E6E6E6"/>
<path d="M108.216 91.0046C108.166 91.0047 108.116 91.0219 108.077 91.0534C108.037 91.0849 108.009 91.129 107.998 91.1783L107.476 93.4155C107.469 93.4471 107.468 93.4799 107.475 93.5117C107.481 93.5435 107.495 93.5735 107.514 93.5997C107.533 93.6259 107.558 93.6475 107.586 93.6632C107.614 93.679 107.646 93.6884 107.678 93.6907L137.147 95.7865C137.202 95.79 137.256 95.7736 137.299 95.7402C137.343 95.7069 137.373 95.6589 137.383 95.6052L137.885 93.0169C137.891 92.9855 137.89 92.9531 137.883 92.922C137.876 92.8909 137.862 92.8617 137.842 92.8364C137.822 92.8112 137.798 92.7904 137.769 92.7755C137.741 92.7605 137.71 92.7518 137.678 92.7499L108.23 91.0051L108.216 91.0046Z" fill="#E6E6E6"/>
<path d="M144.019 104.096C144.072 104.101 144.125 104.086 144.168 104.055C144.212 104.023 144.242 103.978 144.255 103.926L144.894 101.332C144.902 101.301 144.902 101.267 144.896 101.235C144.89 101.203 144.877 101.173 144.857 101.146C144.838 101.12 144.813 101.098 144.785 101.082C144.756 101.066 144.724 101.057 144.692 101.054L107.058 98.4206C107.007 98.4166 106.956 98.4303 106.914 98.4595C106.872 98.4887 106.841 98.5316 106.827 98.5808L106.164 100.822C106.154 100.854 106.152 100.888 106.157 100.921C106.162 100.954 106.175 100.985 106.194 101.013C106.213 101.041 106.237 101.064 106.266 101.08C106.295 101.097 106.327 101.107 106.361 101.11L144.019 104.096Z" fill="#E6E6E6"/>
<path d="M141.998 112.41C142.051 112.415 142.104 112.4 142.147 112.369C142.191 112.337 142.221 112.292 142.234 112.24L142.873 109.646C142.881 109.614 142.881 109.581 142.875 109.549C142.869 109.517 142.856 109.487 142.836 109.46C142.817 109.434 142.792 109.412 142.764 109.396C142.735 109.38 142.703 109.371 142.671 109.368L105.037 106.735C104.986 106.731 104.935 106.744 104.893 106.773C104.851 106.803 104.82 106.846 104.806 106.895L104.143 109.136C104.133 109.168 104.131 109.202 104.136 109.235C104.141 109.268 104.154 109.299 104.173 109.327C104.192 109.355 104.216 109.378 104.245 109.394C104.274 109.411 104.306 109.421 104.34 109.424L141.998 112.41Z" fill="#E6E6E6"/>
<path d="M76.7489 141.68C76.7489 143.56 59.5467 143.76 38.3745 145.085C17.2211 146.407 0 143.56 0 141.68C0 139.799 17.3015 136.016 38.3745 138.275C59.5467 140.545 76.7489 139.799 76.7489 141.68Z" fill="#E6E6E6"/>
<path d="M124.666 126.623C124.719 126.629 124.773 126.615 124.817 126.583C124.861 126.552 124.892 126.506 124.904 126.454L126.255 121.049C126.263 121.018 126.264 120.985 126.258 120.953C126.252 120.921 126.239 120.891 126.22 120.864C126.201 120.838 126.176 120.815 126.148 120.799C126.12 120.783 126.088 120.773 126.056 120.771L102.945 118.826C102.891 118.822 102.838 118.838 102.794 118.87C102.751 118.902 102.72 118.948 102.707 119.001L101.555 124.188C101.548 124.219 101.548 124.251 101.555 124.282C101.561 124.313 101.574 124.343 101.593 124.369C101.612 124.394 101.636 124.416 101.664 124.432C101.691 124.448 101.722 124.457 101.754 124.46L124.666 126.623Z" fill="#85FFEE"/>
<path d="M31.3503 104.601C31.6413 104.401 31.8851 104.14 32.0643 103.836C32.2436 103.532 32.3541 103.193 32.388 102.841C32.4218 102.49 32.3783 102.135 32.2604 101.803C32.1425 101.47 31.9531 101.167 31.7056 100.916L32.6413 80.0142L27.8773 80.5492L28.1542 100.994C27.7591 101.438 27.5405 102.011 27.5399 102.605C27.5393 103.2 27.7566 103.774 28.1507 104.218C28.5449 104.663 29.0884 104.947 29.6782 105.018C30.268 105.088 30.863 104.939 31.3505 104.6L31.3503 104.601Z" fill="#A0616A"/>
<path d="M40.0414 139.982L42.7529 140.459L45.4328 130.221L41.8801 129.517L40.0414 139.982Z" fill="#A0616A"/>
<path d="M47.5403 143.898L39.0186 142.399L39.5974 139.105L44.8266 140.025C45.6998 140.178 46.4763 140.673 46.9852 141.399C47.4941 142.126 47.6938 143.025 47.5403 143.899L47.5403 143.898Z" fill="#2F2E41"/>
<path d="M32.5991 141.34H35.3522L36.6618 130.715H32.5986L32.5991 141.34Z" fill="#A0616A"/>
<path d="M40.6606 143.899L32.0082 143.899L32.008 140.554L37.3175 140.554C38.2041 140.554 39.0544 140.906 39.6814 141.534C40.3083 142.161 40.6606 143.012 40.6606 143.899Z" fill="#2F2E41"/>
<path d="M44.085 137.532C44.0421 137.532 43.9992 137.529 43.9565 137.524L40.7162 137.257C40.5687 137.24 40.4262 137.193 40.2974 137.119C40.1687 137.045 40.0564 136.945 39.9672 136.826C39.8781 136.707 39.8141 136.571 39.7791 136.427C39.744 136.282 39.7387 136.132 39.7634 135.986L42.9802 120.104L40.9592 109.436C40.9427 109.349 40.8954 109.272 40.8261 109.217C40.7568 109.162 40.6702 109.135 40.5821 109.139C40.494 109.144 40.4105 109.18 40.3469 109.241C40.2834 109.302 40.2441 109.384 40.2363 109.472L37.2584 136.577C37.2306 136.863 37.0931 137.126 36.8748 137.312C36.6566 137.498 36.3746 137.592 36.0885 137.574L33.0356 137.461C32.7681 137.442 32.5168 137.325 32.3291 137.133C32.1415 136.942 32.0305 136.688 32.017 136.42L32.2609 103.665L48.088 101.686L49.1937 118.772L49.1892 118.791L45.1492 136.694C45.091 136.933 44.9546 137.145 44.7617 137.297C44.5688 137.449 44.3305 137.531 44.085 137.532Z" fill="#2F2E41"/>
<path d="M37.4803 66.4707C40.5263 66.4707 42.9956 63.9998 42.9956 60.9518C42.9956 57.9038 40.5263 55.4329 37.4803 55.4329C34.4342 55.4329 31.9649 57.9038 31.9649 60.9518C31.9649 63.9998 34.4342 66.4707 37.4803 66.4707Z" fill="#A0616A"/>
<path d="M42.677 106.158C41.8144 106.163 40.9684 105.921 40.239 105.46C37.5667 103.789 34.5327 104.453 32.9617 104.998C32.8058 105.052 32.6396 105.071 32.4754 105.052C32.3113 105.034 32.1535 104.978 32.0139 104.89C31.8759 104.803 31.7592 104.686 31.6727 104.548C31.5863 104.41 31.5321 104.254 31.5145 104.092L28.6579 78.5597C28.1791 74.2818 30.7543 70.2599 34.7811 68.9964C34.9325 68.9489 35.0863 68.9039 35.2426 68.8615C36.4957 68.5216 37.808 68.4606 39.0872 68.6827C40.3664 68.9049 41.5814 69.4049 42.6467 70.1475C43.7319 70.8983 44.6394 71.8779 45.3054 73.0174C45.9715 74.157 46.3798 75.4288 46.5017 76.7432L48.9069 102.446C48.9233 102.613 48.9009 102.781 48.8414 102.937C48.7818 103.093 48.6869 103.233 48.564 103.347C47.7206 104.127 45.2733 106.158 42.677 106.158Z" fill="#85FFEE"/>
<path d="M33.9774 84.035L27.5326 83.3258C27.3492 83.3057 27.1723 83.2462 27.014 83.1514C26.8556 83.0567 26.7196 82.9289 26.615 82.7767C26.5105 82.6246 26.44 82.4517 26.4082 82.2698C26.3765 82.088 26.3843 81.9014 26.4311 81.7228L28.0718 75.4657C28.1201 74.9968 28.2608 74.542 28.4858 74.1278C28.7109 73.7135 29.0157 73.348 29.3827 73.0524C29.7497 72.7567 30.1716 72.5368 30.6241 72.4053C31.0766 72.2738 31.5506 72.2333 32.0188 72.2862C32.487 72.3391 32.9401 72.4843 33.3518 72.7135C33.7636 72.9426 34.1259 73.2512 34.4178 73.6213C34.7097 73.9914 34.9254 74.4157 35.0524 74.8697C35.1795 75.3237 35.2153 75.7984 35.1579 76.2663L35.4016 82.7097C35.4085 82.8942 35.3757 83.0781 35.3052 83.2488C35.2348 83.4194 35.1284 83.5729 34.9933 83.6987C34.8583 83.8245 34.6977 83.9197 34.5225 83.9779C34.3474 84.036 34.1618 84.0556 33.9783 84.0355L33.9774 84.035Z" fill="#85FFEE"/>
<path d="M48.8806 103.706C49.1454 103.473 49.3558 103.184 49.4971 102.861C49.6384 102.538 49.7071 102.187 49.6984 101.834C49.6897 101.482 49.6038 101.135 49.4468 100.819C49.2897 100.503 49.0654 100.225 48.7895 100.005L47.2012 79.1436L42.5328 80.1952L45.2724 100.511C44.9337 101 44.7857 101.595 44.8567 102.185C44.9276 102.775 45.2125 103.319 45.6573 103.713C46.1021 104.107 46.6759 104.324 47.2699 104.322C47.8638 104.321 48.4367 104.102 48.8797 103.706H48.8806Z" fill="#A0616A"/>
<path d="M40.7433 82.7235C40.6082 82.5978 40.5018 82.4444 40.4314 82.2737C40.3609 82.1031 40.3281 81.9193 40.3351 81.7348L40.5787 75.2914C40.5262 74.8259 40.5658 74.3545 40.6954 73.9042C40.8249 73.454 41.0417 73.0336 41.3336 72.6672C41.6255 72.3009 41.9866 71.9956 42.3963 71.7688C42.8061 71.5421 43.2565 71.3983 43.7218 71.3458C44.187 71.2932 44.6581 71.3329 45.1081 71.4625C45.5581 71.5921 45.9781 71.8091 46.3443 72.1011C46.7104 72.3932 47.0155 72.7545 47.2421 73.1645C47.4687 73.5746 47.6124 74.0252 47.6649 74.4908L49.3055 80.7479C49.3523 80.9265 49.3602 81.1131 49.3284 81.2949C49.2967 81.4768 49.2262 81.6497 49.1216 81.8018C49.0171 81.9539 48.881 82.0817 48.7227 82.1765C48.5643 82.2713 48.3875 82.3308 48.2041 82.3509L41.7592 83.0601C41.5758 83.0803 41.3901 83.0607 41.215 83.0025C41.0398 82.9443 40.8792 82.849 40.7442 82.723L40.7433 82.7235Z" fill="#85FFEE"/>
<path d="M37.1522 66.6785C37.0539 66.6785 36.956 66.6671 36.8603 66.6446L36.8322 66.6379C31.9831 65.8963 30.9113 63.0849 30.6762 61.9112C30.4328 60.696 30.7099 59.5231 31.3364 59.0674C30.9948 57.9888 31.0496 57.0314 31.4997 56.2222C32.2856 54.8111 33.988 54.3347 34.2168 54.2754C35.5772 53.2712 37.2048 53.9415 37.501 54.0774C40.1326 53.1033 41.1388 53.9141 41.3202 54.0952C42.4965 54.3066 43.2135 54.7612 43.4515 55.447C43.8986 56.7348 42.4848 58.3367 42.4244 58.4043L42.393 58.4394L40.2866 58.5398C40.0867 58.5493 39.8911 58.6008 39.7124 58.6909C39.5337 58.781 39.3759 58.9076 39.2493 59.0627C39.1226 59.2177 39.03 59.3976 38.9773 59.5908C38.9246 59.784 38.9131 59.986 38.9435 60.184C39.0005 60.4393 39.0725 60.691 39.1591 60.9378C39.5184 62.0627 39.7879 63.0237 39.4407 63.3891C39.3619 63.4598 39.2649 63.5069 39.1606 63.5249C39.0564 63.543 38.9492 63.5314 38.8512 63.4914C38.5218 63.4033 38.2984 63.4217 38.187 63.5464C38.0141 63.7394 38.0668 64.2284 38.3356 64.9227C38.42 65.1423 38.4427 65.3808 38.4013 65.6124C38.3599 65.844 38.2559 66.0598 38.1008 66.2365C37.9839 66.3745 37.8385 66.4854 37.6747 66.5617C37.5109 66.638 37.3325 66.6779 37.1518 66.6785H37.1522Z" fill="#2F2E41"/>
</g>
<defs>
<clipPath id="clip0_31_68">
<rect width="180" height="145.424" fill="white"/>
</clipPath>
</defs>
</svg>
