<svg width="24" height="25" viewBox="0 0 24 25" fill="none" xmlns="http://www.w3.org/2000/svg">
<path d="M20.0325 20.6472H3.9675C3.12243 20.6462 2.31225 20.31 1.71469 19.7125C1.11713 19.1149 0.780991 18.3047 0.779999 17.4597V7.84467C0.780991 6.99959 1.11713 6.18942 1.71469 5.59186C2.31225 4.9943 3.12243 4.65816 3.9675 4.65717H20.0325C20.8776 4.65816 21.6877 4.9943 22.2853 5.59186C22.8829 6.18942 23.219 6.99959 23.22 7.84467V17.4597C23.219 18.3047 22.8829 19.1149 22.2853 19.7125C21.6877 20.31 20.8776 20.6462 20.0325 20.6472ZM3.9675 5.78217C3.42049 5.78217 2.89588 5.99946 2.50909 6.38626C2.1223 6.77305 1.905 7.29766 1.905 7.84467V17.4597C1.905 18.0067 2.1223 18.5313 2.50909 18.9181C2.89588 19.3049 3.42049 19.5222 3.9675 19.5222H20.0325C20.5795 19.5222 21.1041 19.3049 21.4909 18.9181C21.8777 18.5313 22.095 18.0067 22.095 17.4597V7.84467C22.095 7.29766 21.8777 6.77305 21.4909 6.38626C21.1041 5.99946 20.5795 5.78217 20.0325 5.78217H3.9675Z" fill="#A0A8B0"/>
<path d="M12 14.9322C11.3061 14.9333 10.6307 14.7081 10.0762 14.2909L1.32 7.66841C1.25813 7.62499 1.20565 7.56955 1.16569 7.5054C1.12572 7.44124 1.0991 7.36969 1.08741 7.29502C1.07571 7.22035 1.07919 7.14408 1.09763 7.07078C1.11606 6.99748 1.14908 6.92865 1.19472 6.86839C1.24035 6.80814 1.29765 6.7577 1.36321 6.72009C1.42877 6.68248 1.50124 6.65846 1.57629 6.64948C1.65134 6.6405 1.72742 6.64673 1.80001 6.66781C1.87259 6.68889 1.94018 6.72438 1.99875 6.77216L10.755 13.4022C11.1146 13.6706 11.5513 13.8156 12 13.8156C12.4487 13.8156 12.8854 13.6706 13.245 13.4022L22.0012 6.77216C22.0598 6.72438 22.1274 6.68889 22.2 6.66781C22.2726 6.64673 22.3487 6.6405 22.4237 6.64948C22.4988 6.65846 22.5712 6.68248 22.6368 6.72009C22.7023 6.7577 22.7596 6.80814 22.8053 6.86839C22.8509 6.92865 22.8839 6.99748 22.9024 7.07078C22.9208 7.14408 22.9243 7.22035 22.9126 7.29502C22.9009 7.36969 22.8743 7.44124 22.8343 7.5054C22.7943 7.56955 22.7419 7.62499 22.68 7.66841L13.9237 14.2909C13.3693 14.7081 12.6939 14.9333 12 14.9322Z" fill="#A0A8B0"/>
<path d="M1.56375 19.0797C1.44966 19.0798 1.33822 19.0453 1.24422 18.9807C1.15021 18.916 1.07808 18.8243 1.0374 18.7177C0.996716 18.6112 0.989406 18.4947 1.01644 18.3839C1.04347 18.273 1.10356 18.173 1.18875 18.0972L8.08875 11.9434C8.20014 11.8439 8.34647 11.7928 8.49557 11.8013C8.64466 11.8097 8.78429 11.877 8.88375 11.9884C8.9832 12.0998 9.03434 12.2461 9.0259 12.3952C9.01746 12.5443 8.95014 12.6839 8.83875 12.7834L1.93875 18.9372C1.83628 19.0304 1.70227 19.0813 1.56375 19.0797ZM22.4362 19.0797C22.2977 19.0813 22.1637 19.0304 22.0612 18.9372L15.1612 12.7834C15.0499 12.6839 14.9825 12.5443 14.9741 12.3952C14.9657 12.2461 15.0168 12.0998 15.1162 11.9884C15.2157 11.877 15.3553 11.8097 15.5044 11.8013C15.6535 11.7928 15.7999 11.8439 15.9112 11.9434L22.8075 18.0972C22.8927 18.173 22.9528 18.273 22.9798 18.3839C23.0068 18.4947 22.9995 18.6112 22.9588 18.7177C22.9182 18.8243 22.846 18.916 22.752 18.9807C22.658 19.0453 22.5466 19.0798 22.4325 19.0797H22.4362Z" fill="#A0A8B0"/>
</svg>
