<svg width="24" height="25" viewBox="0 0 24 25" fill="none" xmlns="http://www.w3.org/2000/svg">
<path d="M14.53 10.1222L9.47 15.1822C8.82 14.5322 8.42 13.6422 8.42 12.6522C8.42 10.6722 10.02 9.07216 12 9.07216C12.99 9.07216 13.88 9.47216 14.53 10.1222Z" stroke="#A0A8B0" stroke-width="1.5" stroke-linecap="round" stroke-linejoin="round"/>
<path d="M17.82 6.42216C16.07 5.10216 14.07 4.38216 12 4.38216C8.47 4.38216 5.18 6.46216 2.89 10.0622C1.99 11.4722 1.99 13.8422 2.89 15.2522C3.68 16.4922 4.6 17.5622 5.6 18.4222" stroke="#A0A8B0" stroke-width="1.5" stroke-linecap="round" stroke-linejoin="round"/>
<path d="M8.42 20.1822C9.56 20.6622 10.77 20.9222 12 20.9222C15.53 20.9222 18.82 18.8422 21.11 15.2422C22.01 13.8322 22.01 11.4622 21.11 10.0522C20.78 9.53215 20.42 9.04215 20.05 8.58215" stroke="#A0A8B0" stroke-width="1.5" stroke-linecap="round" stroke-linejoin="round"/>
<path d="M15.51 13.3522C15.25 14.7622 14.1 15.9122 12.69 16.1722" stroke="#A0A8B0" stroke-width="1.5" stroke-linecap="round" stroke-linejoin="round"/>
<path d="M9.47 15.1822L2 22.6522" stroke="#A0A8B0" stroke-width="1.5" stroke-linecap="round" stroke-linejoin="round"/>
<path d="M22 2.65216L14.53 10.1222" stroke="#A0A8B0" stroke-width="1.5" stroke-linecap="round" stroke-linejoin="round"/>
</svg>
