<svg width="24" height="24" viewBox="0 0 24 24" fill="none" xmlns="http://www.w3.org/2000/svg">
<path d="M14.53 9.47C13.88 8.82 12.99 8.42 12 8.42C10.02 8.42 8.41998 10.02 8.41998 12C8.41998 12.99 8.84997 13.85 9.49997 14.5" stroke="#A0A8B0" stroke-width="1.5" stroke-linecap="round" stroke-linejoin="round"/>
<path d="M18.5 6.5C16.75 5.18 14.07 3.73 12 3.73C8.47003 3.73 5.18003 5.81 2.89003 9.41C1.99003 10.82 1.99003 13.19 2.89003 14.6C3.68003 15.84 6.00003 17.64 7.00003 18.5" stroke="#A0A8B0" stroke-width="1.5" stroke-linecap="round" stroke-linejoin="round"/>
<path d="M8.41998 19.53C9.55998 20.01 10.77 20.27 12 20.27C15.53 20.27 18.82 18.19 21.11 14.59C22.01 13.18 22.01 10.81 21.11 9.39999C20.78 8.87999 20.42 8.38999 20.05 7.92999" stroke="#A0A8B0" stroke-width="1.5" stroke-linecap="round" stroke-linejoin="round"/>
<path d="M15.51 12.7C15.25 14.11 14.1 15.26 12.69 15.52" stroke="#A0A8B0" stroke-width="1.5" stroke-linecap="round" stroke-linejoin="round"/>
</svg>
