<svg width="101" height="105" viewBox="0 0 101 105" fill="none" xmlns="http://www.w3.org/2000/svg">
<g filter="url(#filter0_d_348_571)">
<path d="M8.82501 21.3408C10.4763 14.6486 15.6225 9.37568 22.2725 7.56205L24.6416 6.91593C41.2649 2.38231 58.7776 2.22083 75.4816 6.44716L79.3214 7.41867C86.7064 9.28715 92.2614 15.3857 93.4344 22.9125L95.187 34.1585C96.7204 43.9976 96.7756 54.0106 95.3507 63.8661L93.3874 77.4458C92.2524 85.2956 86.3609 91.6145 78.6097 93.2955L72.0183 94.7249C57.5211 97.8689 42.5061 97.7482 28.0613 94.3715L23.0493 93.1998C15.9818 91.5477 10.473 86.0134 8.85336 78.9384L7.30672 72.182C3.81756 56.9399 3.95134 41.0919 7.69732 25.9109L8.82501 21.3408Z" fill="#FFB7B7"/>
<g filter="url(#filter1_d_348_571)">
<path d="M78.5636 41.9793C78.5636 32.904 71.2069 25.5472 62.1333 25.5472C56.6248 25.5472 51.7642 28.2665 48.7818 32.4228C45.8011 28.2665 40.9388 25.5472 35.432 25.5472C26.3568 25.5472 19 32.904 19 41.9793C19 43.2648 19.1632 44.5104 19.4429 45.7109C21.7259 59.885 37.4852 74.8417 48.7818 78.948C60.0768 74.8417 75.8394 59.885 78.1174 45.7109C78.4005 44.5104 78.5636 43.2648 78.5636 41.9793Z" fill="#EA4335"/>
<g filter="url(#filter2_i_348_571)">
<path d="M77.918 43.6758C77.918 34.7626 70.6926 27.5372 61.781 27.5372C56.3709 27.5372 51.5971 30.2079 48.668 34.2899C45.7405 30.2079 40.965 27.5372 35.5566 27.5372C26.6434 27.5372 19.418 34.7626 19.418 43.6758C19.418 44.9383 19.5782 46.1617 19.853 47.3408C22.0952 61.2618 37.5731 75.9514 48.668 79.9844C59.7612 75.9514 75.2424 61.2618 77.4797 47.3408C77.7577 46.1617 77.918 44.9383 77.918 43.6758Z" fill="#EA4335"/>
<path d="M67.8771 35.7883C67.8771 47.3777 54.1247 62.2345 42.7358 62.2345C31.3468 62.2345 20.4193 55.1392 20.4193 43.5498C20.4193 31.9603 34.8261 43.5498 45.1813 39.8128C52.8085 24.865 67.8771 24.1988 67.8771 35.7883Z" fill="url(#paint0_linear_348_571)" fill-opacity="0.56"/>
</g>
</g>
<g filter="url(#filter3_d_348_571)">
<rect x="48.7819" y="34.0341" width="30.9273" height="7.73182" rx="3.86591" fill="#34BEAB"/>
<rect x="60.7662" y="53.3636" width="30.9273" height="7.73182" rx="3.86591" transform="rotate(-90 60.7662 53.3636)" fill="#34BEAB"/>
</g>
<g filter="url(#filter4_d_348_571)">
<rect x="63.6727" y="25.8727" width="18.3273" height="4.58182" rx="2.29091" fill="#34BEAB"/>
<rect x="70.7745" y="37.3273" width="18.3273" height="4.58182" rx="2.29091" transform="rotate(-90 70.7745 37.3273)" fill="#34BEAB"/>
</g>
</g>
<defs>
<filter id="filter0_d_348_571" x="-2" y="0" width="103.5" height="107.5" filterUnits="userSpaceOnUse" color-interpolation-filters="sRGB">
<feFlood flood-opacity="0" result="BackgroundImageFix"/>
<feColorMatrix in="SourceAlpha" type="matrix" values="0 0 0 0 0 0 0 0 0 0 0 0 0 0 0 0 0 0 127 0" result="hardAlpha"/>
<feOffset dy="4"/>
<feGaussianBlur stdDeviation="2"/>
<feComposite in2="hardAlpha" operator="out"/>
<feColorMatrix type="matrix" values="0 0 0 0 0 0 0 0 0 0 0 0 0 0 0 0 0 0 0.25 0"/>
<feBlend mode="normal" in2="BackgroundImageFix" result="effect1_dropShadow_348_571"/>
<feBlend mode="normal" in="SourceGraphic" in2="effect1_dropShadow_348_571" result="shape"/>
</filter>
<filter id="filter1_d_348_571" x="13" y="25.5472" width="67.5636" height="62.4371" filterUnits="userSpaceOnUse" color-interpolation-filters="sRGB">
<feFlood flood-opacity="0" result="BackgroundImageFix"/>
<feColorMatrix in="SourceAlpha" type="matrix" values="0 0 0 0 0 0 0 0 0 0 0 0 0 0 0 0 0 0 127 0" result="hardAlpha"/>
<feOffset dx="-2" dy="4"/>
<feGaussianBlur stdDeviation="2"/>
<feComposite in2="hardAlpha" operator="out"/>
<feColorMatrix type="matrix" values="0 0 0 0 0 0 0 0 0 0 0 0 0 0 0 0 0 0 0.26 0"/>
<feBlend mode="normal" in2="BackgroundImageFix" result="effect1_dropShadow_348_571"/>
<feBlend mode="normal" in="SourceGraphic" in2="effect1_dropShadow_348_571" result="shape"/>
</filter>
<filter id="filter2_i_348_571" x="19.418" y="27.5372" width="67.5" height="61.4472" filterUnits="userSpaceOnUse" color-interpolation-filters="sRGB">
<feFlood flood-opacity="0" result="BackgroundImageFix"/>
<feBlend mode="normal" in="SourceGraphic" in2="BackgroundImageFix" result="shape"/>
<feColorMatrix in="SourceAlpha" type="matrix" values="0 0 0 0 0 0 0 0 0 0 0 0 0 0 0 0 0 0 127 0" result="hardAlpha"/>
<feOffset dx="10" dy="10"/>
<feGaussianBlur stdDeviation="4.5"/>
<feComposite in2="hardAlpha" operator="arithmetic" k2="-1" k3="1"/>
<feColorMatrix type="matrix" values="0 0 0 0 0.8875 0 0 0 0 0.506615 0 0 0 0 0.506615 0 0 0 0.58 0"/>
<feBlend mode="normal" in2="shape" result="effect1_innerShadow_348_571"/>
</filter>
<filter id="filter3_d_348_571" x="44.7819" y="22.4364" width="38.9272" height="38.9273" filterUnits="userSpaceOnUse" color-interpolation-filters="sRGB">
<feFlood flood-opacity="0" result="BackgroundImageFix"/>
<feColorMatrix in="SourceAlpha" type="matrix" values="0 0 0 0 0 0 0 0 0 0 0 0 0 0 0 0 0 0 127 0" result="hardAlpha"/>
<feOffset dy="4"/>
<feGaussianBlur stdDeviation="2"/>
<feComposite in2="hardAlpha" operator="out"/>
<feColorMatrix type="matrix" values="0 0 0 0 0 0 0 0 0 0 0 0 0 0 0 0 0 0 0.57 0"/>
<feBlend mode="normal" in2="BackgroundImageFix" result="effect1_dropShadow_348_571"/>
<feBlend mode="normal" in="SourceGraphic" in2="effect1_dropShadow_348_571" result="shape"/>
</filter>
<filter id="filter4_d_348_571" x="59.6727" y="19" width="26.3273" height="26.3273" filterUnits="userSpaceOnUse" color-interpolation-filters="sRGB">
<feFlood flood-opacity="0" result="BackgroundImageFix"/>
<feColorMatrix in="SourceAlpha" type="matrix" values="0 0 0 0 0 0 0 0 0 0 0 0 0 0 0 0 0 0 127 0" result="hardAlpha"/>
<feOffset dy="4"/>
<feGaussianBlur stdDeviation="2"/>
<feComposite in2="hardAlpha" operator="out"/>
<feColorMatrix type="matrix" values="0 0 0 0 0 0 0 0 0 0 0 0 0 0 0 0 0 0 0.57 0"/>
<feBlend mode="normal" in2="BackgroundImageFix" result="effect1_dropShadow_348_571"/>
<feBlend mode="normal" in="SourceGraphic" in2="effect1_dropShadow_348_571" result="shape"/>
</filter>
<linearGradient id="paint0_linear_348_571" x1="44.1482" y1="25.2288" x2="44.1482" y2="62.2345" gradientUnits="userSpaceOnUse">
<stop stop-color="#FF6838"/>
<stop stop-color="#FFB49C" stop-opacity="0.52"/>
<stop offset="1" stop-color="#FF6838" stop-opacity="0"/>
</linearGradient>
</defs>
</svg>
