<svg width="12" height="20" viewBox="0 0 12 20" fill="none" xmlns="http://www.w3.org/2000/svg">
<path d="M0.568243 11.3487L8.71349 19.4358C8.89207 19.6146 9.10454 19.7565 9.33864 19.8533C9.57274 19.9501 9.82383 20 10.0774 20C10.331 20 10.5821 19.9501 10.8162 19.8533C11.0503 19.7565 11.2628 19.6146 11.4414 19.4358C11.7992 19.0784 12 18.595 12 18.0911C12 17.5872 11.7992 17.1038 11.4414 16.7465L4.64086 9.99449L11.4414 3.24251C11.7992 2.88515 12 2.40172 12 1.89783C12 1.39394 11.7992 0.910522 11.4414 0.55316C11.2619 0.376385 11.049 0.236528 10.8149 0.141611C10.5809 0.0466938 10.3303 -0.00141907 10.0774 3.24249e-05C9.82461 -0.00141907 9.57398 0.0466938 9.33993 0.141611C9.10587 0.236528 8.89299 0.376385 8.71349 0.55316L0.568243 8.64028C0.388186 8.81759 0.245272 9.02854 0.147742 9.26097C0.0502129 9.4934 0 9.74269 0 9.99449C0 10.2463 0.0502129 10.4956 0.147742 10.728C0.245272 10.9604 0.388186 11.1714 0.568243 11.3487Z" fill="#A0A8B0"/>
</svg>
