<svg width="16" height="20" viewBox="0 0 16 20" fill="none" xmlns="http://www.w3.org/2000/svg">
<path d="M8 11C7.69555 10.9964 7.39732 11.0862 7.14544 11.2573C6.89357 11.4284 6.70015 11.6725 6.59121 11.9568C6.48228 12.2411 6.51813 12.552 6.59121 12.8476C6.6643 13.1431 7.06401 13.4092 7.29289 13.61V15C7.29289 15.2652 7.25853 15.5196 7.44607 15.7071C7.63361 15.8946 7.73478 16 8 16C8.26522 16 8.3835 15.8946 8.57103 15.7071C8.75857 15.5196 8.70711 15.2652 8.70711 15V13.61C8.93599 13.4092 9.3357 13.1431 9.40879 12.8476C9.48187 12.552 9.51772 12.2411 9.40879 11.9568C9.29985 11.6725 9.10643 11.4284 8.85456 11.2573C8.60268 11.0862 8.30445 10.9964 8 11ZM13 7V5C13 3.67392 12.4732 2.40215 11.5355 1.46447C10.5979 0.526784 9.32608 0 8 0C6.67392 0 5.40215 0.526784 4.46447 1.46447C3.52678 2.40215 3 3.67392 3 5V7C2.20435 7 1.44129 7.31607 0.87868 7.87868C0.316071 8.44129 0 9.20435 0 10V17C0 17.7956 0.316071 18.5587 0.87868 19.1213C1.44129 19.6839 2.20435 20 3 20H13C13.7956 20 14.5587 19.6839 15.1213 19.1213C15.6839 18.5587 16 17.7956 16 17V10C16 9.20435 15.6839 8.44129 15.1213 7.87868C14.5587 7.31607 13.7956 7 13 7ZM4.5 5C4.5 4.20435 4.93739 3.06261 5.5 2.5C6.06261 1.93739 7.20435 1.46447 8 1.46447C8.79565 1.46447 9.93739 1.93739 10.5 2.5C11.0626 3.06261 11.5355 4.20435 11.5355 5V7H4.5V5ZM14.5 17C14.5 17.2652 14.1875 17.8125 14 18C13.8125 18.1875 13.2652 18.5 13 18.5H3C2.73478 18.5 2.18754 18.1875 2 18C1.81246 17.8125 1.5 17.2652 1.5 17V13.5V11.5V10C1.5 9.73478 1.81246 9.18754 2 9C2.18754 8.81246 2.73478 8.5 3 8.5H8H13C13.2652 8.5 13.8125 8.81246 14 9C14.1875 9.18754 14.5 9.73478 14.5 10V17Z" fill="#A0A8B0"/>
</svg>
