<svg width="14" height="24" viewBox="0 0 14 24" fill="none" xmlns="http://www.w3.org/2000/svg">
<path d="M13.3371 10.1657L3.83427 0.66295C3.62592 0.452884 3.37803 0.286149 3.10492 0.172365C2.83181 0.0585811 2.53887 0 2.243 0C1.94713 0 1.65419 0.0585811 1.38108 0.172365C1.10796 0.286149 0.860081 0.452884 0.651731 0.66295C0.234301 1.08287 0 1.65091 0 2.24301C0 2.83511 0.234301 3.40315 0.651731 3.82307L8.58566 11.757L0.651731 19.6909C0.234301 20.1108 0 20.6789 0 21.271C0 21.8631 0.234301 22.4311 0.651731 22.8511C0.861151 23.0588 1.10951 23.2231 1.38258 23.3346C1.65564 23.4462 1.94804 23.5027 2.243 23.501C2.53796 23.5027 2.83035 23.4462 3.10342 23.3346C3.37648 23.2231 3.62485 23.0588 3.83427 22.8511L13.3371 13.3483C13.5471 13.1399 13.7139 12.892 13.8276 12.6189C13.9414 12.3458 14 12.0529 14 11.757C14 11.4611 13.9414 11.1682 13.8276 10.8951C13.7139 10.622 13.5471 10.3741 13.3371 10.1657Z" fill="white"/>
</svg>
