<svg width="24" height="24" viewBox="0 0 24 24" fill="none" xmlns="http://www.w3.org/2000/svg">
<path d="M11.9648 13.8314C15.5191 13.8314 18.3695 10.9457 18.3695 7.42667C18.3695 3.90761 15.5191 0.986786 11.9648 0.986786C8.41056 0.986786 5.56012 3.87242 5.56012 7.39148C5.56012 10.9105 8.41056 13.8314 11.9648 13.8314ZM11.9648 2.67594C14.5689 2.67594 16.6804 4.78737 16.6804 7.39148C16.6804 9.99558 14.5689 12.107 11.9648 12.107C9.3607 12.107 7.24927 10.0308 7.24927 7.42667C7.24927 4.82256 9.3607 2.67594 11.9648 2.67594ZM0.844575 23.8607H23.1554C23.6129 23.8607 24 23.4736 24 23.0161C24 18.5821 20.3754 14.9575 15.9414 14.9575H8.05865C3.62463 14.9575 0 18.5821 0 23.0161C0 23.4736 0.387097 23.8607 0.844575 23.8607ZM8.05865 16.6466H15.9414C19.1789 16.6466 21.8182 19.0396 22.2405 22.1715H1.75953C2.18182 19.0396 4.82111 16.6466 8.05865 16.6466Z" fill="#A0A8B0"/>
</svg>
